{
    "asset" : {
        "generator" : "Khronos glTF Blender I/O v3.2.43",
        "version" : "2.0"
    },
    "scene" : 0,
    "scenes" : [
        {
            "name" : "Scene",
            "nodes" : [
                0,
                1
            ]
        }
    ],
    "nodes" : [
        {
            "name" : "Empty",
            "translation" : [
                -0.17496049404144287,
                0,
                1.219515085220337
            ]
        },
        {
            "mesh" : 0,
            "name" : "Barddhaman"
        }
    ],
    "meshes" : [
        {
            "name" : "Plane.016",
            "primitives" : [
                {
                    "attributes" : {
                        "POSITION" : 0,
                        "NORMAL" : 1
                    },
                    "indices" : 2
                }
            ]
        }
    ],
    "accessors" : [
        {
            "bufferView" : 0,
            "componentType" : 5126,
            "count" : 1254,
            "max" : [
                0.8051574230194092,
                0,
                2.101468801498413
            ],
            "min" : [
                -1.4788779020309448,
                -0.5,
                0.6817396283149719
            ],
            "type" : "VEC3"
        },
        {
            "bufferView" : 1,
            "componentType" : 5126,
            "count" : 1254,
            "type" : "VEC3"
        },
        {
            "bufferView" : 2,
            "componentType" : 5123,
            "count" : 2496,
            "type" : "SCALAR"
        }
    ],
    "bufferViews" : [
        {
            "buffer" : 0,
            "byteLength" : 15048,
            "byteOffset" : 0
        },
        {
            "buffer" : 0,
            "byteLength" : 15048,
            "byteOffset" : 15048
        },
        {
            "buffer" : 0,
            "byteLength" : 4992,
            "byteOffset" : 30096
        }
    ],
    "buffers" : [
        {
            "byteLength" : 35088,
            "uri" : "data:application/octet-stream;base64,"
        }
    ]
}
