{
    "asset" : {
        "generator" : "Khronos glTF Blender I/O v3.2.43",
        "version" : "2.0"
    },
    "scene" : 0,
    "scenes" : [
        {
            "name" : "Scene",
            "nodes" : [
                0,
                1
            ]
        }
    ],
    "nodes" : [
        {
            "name" : "Empty",
            "translation" : [
                -0.3244030177593231,
                0,
                0.47647738456726074
            ]
        },
        {
            "mesh" : 0,
            "name" : "Birbhum"
        }
    ],
    "meshes" : [
        {
            "name" : "Plane.017",
            "primitives" : [
                {
                    "attributes" : {
                        "POSITION" : 0,
                        "NORMAL" : 1
                    },
                    "indices" : 2
                }
            ]
        }
    ],
    "accessors" : [
        {
            "bufferView" : 0,
            "componentType" : 5126,
            "count" : 1266,
            "max" : [
                0.25109994411468506,
                0,
                1.1735725402832031
            ],
            "min" : [
                -1.02945876121521,
                -0.5,
                -0.39327678084373474
            ],
            "type" : "VEC3"
        },
        {
            "bufferView" : 1,
            "componentType" : 5126,
            "count" : 1266,
            "type" : "VEC3"
        },
        {
            "bufferView" : 2,
            "componentType" : 5123,
            "count" : 2520,
            "type" : "SCALAR"
        }
    ],
    "bufferViews" : [
        {
            "buffer" : 0,
            "byteLength" : 15192,
            "byteOffset" : 0
        },
        {
            "buffer" : 0,
            "byteLength" : 15192,
            "byteOffset" : 15192
        },
        {
            "buffer" : 0,
            "byteLength" : 5040,
            "byteOffset" : 30384
        }
    ],
    "buffers" : [
        {
            "byteLength" : 35424,
            "uri" : "data:application/octet-stream;base64,"
        }
    ]
}
