{
    "asset" : {
        "generator" : "Khronos glTF Blender I/O v3.2.43",
        "version" : "2.0"
    },
    "scene" : 0,
    "scenes" : [
        {
            "name" : "Scene",
            "nodes" : [
                0,
                1
            ]
        }
    ],
    "nodes" : [
        {
            "name" : "Empty",
            "translation" : [
                2.003319025039673,
                0,
                -2.920907735824585
            ]
        },
        {
            "mesh" : 0,
            "name" : "Coochbihar"
        }
    ],
    "meshes" : [
        {
            "name" : "Plane.018",
            "primitives" : [
                {
                    "attributes" : {
                        "POSITION" : 0,
                        "NORMAL" : 1
                    },
                    "indices" : 2
                }
            ]
        }
    ],
    "accessors" : [
        {
            "bufferView" : 0,
            "componentType" : 5126,
            "count" : 1434,
            "max" : [
                2.824594497680664,
                0,
                -2.485353946685791
            ],
            "min" : [
                1.141326665878296,
                -0.5,
                -3.3076932430267334
            ],
            "type" : "VEC3"
        },
        {
            "bufferView" : 1,
            "componentType" : 5126,
            "count" : 1434,
            "type" : "VEC3"
        },
        {
            "bufferView" : 2,
            "componentType" : 5123,
            "count" : 2832,
            "type" : "SCALAR"
        }
    ],
    "bufferViews" : [
        {
            "buffer" : 0,
            "byteLength" : 17208,
            "byteOffset" : 0
        },
        {
            "buffer" : 0,
            "byteLength" : 17208,
            "byteOffset" : 17208
        },
        {
            "buffer" : 0,
            "byteLength" : 5664,
            "byteOffset" : 34416
        }
    ],
    "buffers" : [
        {
            "byteLength" : 40080,
            "uri" : "data:application/octet-stream;base64,"
        }
    ]
}
