{
    "asset" : {
        "generator" : "Khronos glTF Blender I/O v3.2.43",
        "version" : "2.0"
    },
    "scene" : 0,
    "scenes" : [
        {
            "name" : "Scene",
            "nodes" : [
                0,
                1
            ]
        }
    ],
    "nodes" : [
        {
            "name" : "Empty",
            "translation" : [
                0.39689403772354126,
                0,
                -1.2015721797943115
            ]
        },
        {
            "mesh" : 0,
            "name" : "Maldah"
        }
    ],
    "meshes" : [
        {
            "name" : "Plane.007",
            "primitives" : [
                {
                    "attributes" : {
                        "POSITION" : 0,
                        "NORMAL" : 1
                    },
                    "indices" : 2
                }
            ]
        }
    ],
    "accessors" : [
        {
            "bufferView" : 0,
            "componentType" : 5126,
            "count" : 834,
            "max" : [
                0.8585450053215027,
                0,
                -0.5162664651870728
            ],
            "min" : [
                -0.1039152443408966,
                -0.5,
                -1.8283169269561768
            ],
            "type" : "VEC3"
        },
        {
            "bufferView" : 1,
            "componentType" : 5126,
            "count" : 834,
            "type" : "VEC3"
        },
        {
            "bufferView" : 2,
            "componentType" : 5123,
            "count" : 1656,
            "type" : "SCALAR"
        }
    ],
    "bufferViews" : [
        {
            "buffer" : 0,
            "byteLength" : 10008,
            "byteOffset" : 0
        },
        {
            "buffer" : 0,
            "byteLength" : 10008,
            "byteOffset" : 10008
        },
        {
            "buffer" : 0,
            "byteLength" : 3312,
            "byteOffset" : 20016
        }
    ],
    "buffers" : [
        {
            "byteLength" : 23328,
            "uri" : "data:application/octet-stream;base64,"
        }
    ]
}
