{
    "asset" : {
        "generator" : "Khronos glTF Blender I/O v3.2.43",
        "version" : "2.0"
    },
    "scene" : 0,
    "scenes" : [
        {
            "name" : "Scene",
            "nodes" : [
                0,
                1
            ]
        }
    ],
    "nodes" : [
        {
            "name" : "Empty",
            "translation" : [
                0.49076786637306213,
                0,
                0.1545546054840088
            ]
        },
        {
            "mesh" : 0,
            "name" : "Murshidabad"
        }
    ],
    "meshes" : [
        {
            "name" : "Plane.004",
            "primitives" : [
                {
                    "attributes" : {
                        "POSITION" : 0,
                        "NORMAL" : 1
                    },
                    "indices" : 2
                }
            ]
        }
    ],
    "accessors" : [
        {
            "bufferView" : 0,
            "componentType" : 5126,
            "count" : 1044,
            "max" : [
                1.3097270727157593,
                0,
                0.9185383319854736
            ],
            "min" : [
                -0.020991357043385506,
                -0.5,
                -0.7443819642066956
            ],
            "type" : "VEC3"
        },
        {
            "bufferView" : 1,
            "componentType" : 5126,
            "count" : 1044,
            "type" : "VEC3"
        },
        {
            "bufferView" : 2,
            "componentType" : 5123,
            "count" : 2076,
            "type" : "SCALAR"
        }
    ],
    "bufferViews" : [
        {
            "buffer" : 0,
            "byteLength" : 12528,
            "byteOffset" : 0
        },
        {
            "buffer" : 0,
            "byteLength" : 12528,
            "byteOffset" : 12528
        },
        {
            "buffer" : 0,
            "byteLength" : 4152,
            "byteOffset" : 25056
        }
    ],
    "buffers" : [
        {
            "byteLength" : 29208,
            "uri" : "data:application/octet-stream;base64,"
        }
    ]
}
