{
    "asset" : {
        "generator" : "Khronos glTF Blender I/O v3.2.43",
        "version" : "2.0"
    },
    "scene" : 0,
    "scenes" : [
        {
            "name" : "Scene",
            "nodes" : [
                0,
                1
            ]
        }
    ],
    "nodes" : [
        {
            "name" : "Empty",
            "translation" : [
                1.3453577756881714,
                0,
                2.3921759128570557
            ]
        },
        {
            "mesh" : 0,
            "name" : "North24Pgs"
        }
    ],
    "meshes" : [
        {
            "name" : "Plane.003",
            "primitives" : [
                {
                    "attributes" : {
                        "POSITION" : 0,
                        "NORMAL" : 1
                    },
                    "indices" : 2
                }
            ]
        }
    ],
    "accessors" : [
        {
            "bufferView" : 0,
            "componentType" : 5126,
            "count" : 1250,
            "max" : [
                1.8063552379608154,
                0,
                3.3160252571105957
            ],
            "min" : [
                0.7155688405036926,
                -0.5,
                1.5934501886367798
            ],
            "type" : "VEC3"
        },
        {
            "bufferView" : 1,
            "componentType" : 5126,
            "count" : 1250,
            "type" : "VEC3"
        },
        {
            "bufferView" : 2,
            "componentType" : 5123,
            "count" : 2496,
            "type" : "SCALAR"
        }
    ],
    "bufferViews" : [
        {
            "buffer" : 0,
            "byteLength" : 15000,
            "byteOffset" : 0
        },
        {
            "buffer" : 0,
            "byteLength" : 15000,
            "byteOffset" : 15000
        },
        {
            "buffer" : 0,
            "byteLength" : 4992,
            "byteOffset" : 30000
        }
    ],
    "buffers" : [
        {
            "byteLength" : 34992,
            "uri" : "data:application/octet-stream;base64,"
        }
    ]
}
