{
    "asset" : {
        "generator" : "Khronos glTF Blender I/O v3.2.43",
        "version" : "2.0"
    },
    "scene" : 0,
    "scenes" : [
        {
            "name" : "Scene",
            "nodes" : [
                0,
                1
            ]
        }
    ],
    "nodes" : [
        {
            "name" : "Empty",
            "translation" : [
                -0.9198790788650513,
                0,
                2.9494340419769287
            ]
        },
        {
            "mesh" : 0,
            "name" : "Paschim Medinipur"
        }
    ],
    "meshes" : [
        {
            "name" : "Plane.008",
            "primitives" : [
                {
                    "attributes" : {
                        "POSITION" : 0,
                        "NORMAL" : 1
                    },
                    "indices" : 2
                }
            ]
        }
    ],
    "accessors" : [
        {
            "bufferView" : 0,
            "componentType" : 5126,
            "count" : 1590,
            "max" : [
                0.075534388422966,
                0,
                3.8447985649108887
            ],
            "min" : [
                -1.8161531686782837,
                -0.5,
                2.070462703704834
            ],
            "type" : "VEC3"
        },
        {
            "bufferView" : 1,
            "componentType" : 5126,
            "count" : 1590,
            "type" : "VEC3"
        },
        {
            "bufferView" : 2,
            "componentType" : 5123,
            "count" : 3168,
            "type" : "SCALAR"
        }
    ],
    "bufferViews" : [
        {
            "buffer" : 0,
            "byteLength" : 19080,
            "byteOffset" : 0
        },
        {
            "buffer" : 0,
            "byteLength" : 19080,
            "byteOffset" : 19080
        },
        {
            "buffer" : 0,
            "byteLength" : 6336,
            "byteOffset" : 38160
        }
    ],
    "buffers" : [
        {
            "byteLength" : 44496,
            "uri" : "data:application/octet-stream;base64,"
        }
    ]
}
