{
    "asset" : {
        "generator" : "Khronos glTF Blender I/O v3.2.43",
        "version" : "2.0"
    },
    "scene" : 0,
    "scenes" : [
        {
            "name" : "Scene",
            "nodes" : [
                0,
                1
            ]
        }
    ],
    "nodes" : [
        {
            "name" : "Empty",
            "translation" : [
                -2.0103542804718018,
                0,
                1.5830634832382202
            ]
        },
        {
            "mesh" : 0,
            "name" : "Purulia"
        }
    ],
    "meshes" : [
        {
            "name" : "Plane.023",
            "primitives" : [
                {
                    "attributes" : {
                        "POSITION" : 0,
                        "NORMAL" : 1
                    },
                    "indices" : 2
                }
            ]
        }
    ],
    "accessors" : [
        {
            "bufferView" : 0,
            "componentType" : 5126,
            "count" : 1140,
            "max" : [
                -1.3084088563919067,
                0,
                2.433891534805298
            ],
            "min" : [
                -2.9167110919952393,
                -0.5,
                0.9184644222259521
            ],
            "type" : "VEC3"
        },
        {
            "bufferView" : 1,
            "componentType" : 5126,
            "count" : 1140,
            "type" : "VEC3"
        },
        {
            "bufferView" : 2,
            "componentType" : 5123,
            "count" : 2268,
            "type" : "SCALAR"
        }
    ],
    "bufferViews" : [
        {
            "buffer" : 0,
            "byteLength" : 13680,
            "byteOffset" : 0
        },
        {
            "buffer" : 0,
            "byteLength" : 13680,
            "byteOffset" : 13680
        },
        {
            "buffer" : 0,
            "byteLength" : 4536,
            "byteOffset" : 27360
        }
    ],
    "buffers" : [
        {
            "byteLength" : 31896,
            "uri" : "data:application/octet-stream;base64,"
        }
    ]
}
