{
    "asset" : {
        "generator" : "Khronos glTF Blender I/O v3.2.43",
        "version" : "2.0"
    },
    "scene" : 0,
    "scenes" : [
        {
            "name" : "Scene",
            "nodes" : [
                0,
                1
            ]
        }
    ],
    "nodes" : [
        {
            "name" : "Empty",
            "translation" : [
                1.08963942527771,
                0,
                3.7550430297851562
            ]
        },
        {
            "mesh" : 0,
            "name" : "South24Pgs"
        }
    ],
    "meshes" : [
        {
            "name" : "Plane.001",
            "primitives" : [
                {
                    "attributes" : {
                        "POSITION" : 0,
                        "NORMAL" : 1,
                        "TEXCOORD_0" : 2
                    },
                    "indices" : 3
                }
            ]
        }
    ],
    "accessors" : [
        {
            "bufferView" : 0,
            "componentType" : 5126,
            "count" : 6864,
            "max" : [
                1.831438422203064,
                0,
                4.340084552764893
            ],
            "min" : [
                0.19206330180168152,
                -0.5,
                2.601140022277832
            ],
            "type" : "VEC3"
        },
        {
            "bufferView" : 1,
            "componentType" : 5126,
            "count" : 6864,
            "type" : "VEC3"
        },
        {
            "bufferView" : 2,
            "componentType" : 5126,
            "count" : 6864,
            "type" : "VEC2"
        },
        {
            "bufferView" : 3,
            "componentType" : 5123,
            "count" : 13128,
            "type" : "SCALAR"
        }
    ],
    "bufferViews" : [
        {
            "buffer" : 0,
            "byteLength" : 82368,
            "byteOffset" : 0
        },
        {
            "buffer" : 0,
            "byteLength" : 82368,
            "byteOffset" : 82368
        },
        {
            "buffer" : 0,
            "byteLength" : 54912,
            "byteOffset" : 164736
        },
        {
            "buffer" : 0,
            "byteLength" : 26256,
            "byteOffset" : 219648
        }
    ],
    "buffers" : [
        {
            "byteLength" : 245904,
            "uri" : "data:application/octet-stream;base64,"
        }
    ]
}
